<?xml version="1.0" encoding="utf-8"?>
<!-- Generator: Adobe Illustrator 27.5.0, SVG Export Plug-In . SVG Version: 6.00 Build 0)  -->
<svg version="1.1" xmlns="http://www.w3.org/2000/svg" xmlns:xlink="http://www.w3.org/1999/xlink" x="0px" y="0px"
	 viewBox="0 0 500 500" style="enable-background:new 0 0 500 500;" xml:space="preserve">
<g id="BACKGROUND">
	<rect style="fill:#FFFFFF;" width="500" height="500"/>
</g>
<g id="OBJECTS">
	<g>
		<g>
			<defs>
				
					<ellipse id="SVGID_1_" transform="matrix(0.7071 -0.7071 0.7071 0.7071 -77.9622 239.3997)" cx="250" cy="213.809" rx="112.599" ry="112.599"/>
			</defs>
			<clipPath id="SVGID_00000124133105155668691160000009824367485894345140_">
				<use xlink:href="#SVGID_1_"  style="overflow:visible;"/>
			</clipPath>
			
				<ellipse transform="matrix(0.7071 -0.7071 0.7071 0.7071 -77.9622 239.3997)" style="clip-path:url(#SVGID_00000124133105155668691160000009824367485894345140_);fill:#F08100;" cx="250" cy="213.809" rx="112.599" ry="112.599"/>
			<g style="clip-path:url(#SVGID_00000124133105155668691160000009824367485894345140_);">
				<rect x="120.623" y="86.227" style="fill:#FFAF1E;" width="265.421" height="34.566"/>
				<rect x="120.623" y="120.793" style="fill:#F79703;" width="265.421" height="39.968"/>
				<rect x="120.623" y="160.761" style="fill:#EF7C01;" width="265.421" height="53.048"/>
				<rect x="120.623" y="213.809" style="fill:#E85700;" width="265.421" height="67.83"/>
			</g>
			<g style="clip-path:url(#SVGID_00000124133105155668691160000009824367485894345140_);">
				<g>
					<polygon style="fill:#233A4C;" points="393.875,275.011 333.921,230.245 324.795,227.23 304.491,213.844 293.981,227.596 
						288.229,231.354 283.679,237.986 264.764,256.145 243.493,287.73 254.632,296.832 302.81,305.703 343.16,310.085 
						354.825,307.503 400.427,288.766 					"/>
				</g>
				<g>
					<path style="fill:#FFFFFF;" d="M331.154,237.926l7.579,10.694l-8.642-2.16l-5.833-4.105l-8.213-10.632l-9.789-9.193
						l-2.09,17.881l1.944,11.882l6.771,9.853l-8.068-4.236l-5.001-2.651l-4.786-7.222c0.283,10.809,0.378,21.621-0.099,32.365
						l10.458,6.045l35.832,40.635l43.333-51.523L331.154,237.926z"/>
				</g>
				<g>
					<polygon style="fill:#233A4C;" points="324.792,298.65 314.856,290.907 305.426,283.561 299.383,277.369 288.704,266.806 
						274.075,254.895 271.381,259.656 246.232,253.291 241.375,249.163 234.162,255.622 211.648,241.257 190.109,224.05 
						165.188,249.201 154.52,254.743 135.98,272.654 106.319,306.81 171.317,332.814 250,349.852 321.137,326.906 348.05,323.247 
						331.739,307.49 					"/>
				</g>
				<g>
					<polygon style="fill:#FFFFFF;" points="147.718,318.386 144.961,307.98 147.914,299.965 151.996,293.614 155.937,300.577 
						159.319,306.1 172.989,314.969 189.006,318.824 173.655,306.252 167.745,303.296 164.978,293.792 171.785,276.301 
						180.557,282.888 193.478,292.041 201.003,294.439 181.24,271.951 182.602,261.795 198.723,267.87 184.62,253.508 
						179.427,248.716 186.353,244.954 194.893,250.459 190.883,241.78 189.305,234.947 201.122,245.163 213.496,255.929 
						219.974,258.836 234.731,274.805 243.974,293.341 243.491,287.024 248.145,289.093 255.512,294.712 245.55,279.892 
						240.145,265.351 248.314,273.19 242.895,265.38 245.636,257.893 252.763,268.693 262.657,278.847 277.687,294.605 
						307.749,305.417 285.55,289.49 280.691,280.855 280.478,275.046 302.867,290.684 320.867,305.265 332.023,316.745 
						251.423,335.997 174.025,326.933 					"/>
				</g>
			</g>
		</g>
		<g>
			<g>
				<path style="fill:#FFFFFF;" d="M250.828,159.269c44.962,0.11,76.048,14.634,76.048,14.634
					c-11.879,1.01-70.058,0.105-76.048,0.008V159.269z"/>
				<path style="fill:#BCBCBC;" d="M250.828,159.269c36.773,0.84,69.178,17.773,69.178,17.773
					c-11.879,1.01-63.188-3.035-69.178-3.131V159.269z"/>
				<g>
					<path style="fill:#233A4C;" d="M265.191,165.361c0,0,19.749,1.559,28.974,5.34c0,0-23.138-1.443-29.564,3.085L265.191,165.361z
						"/>
				</g>
				<path style="fill:#233A4C;" d="M249.562,173.915c0.493-0.008,0.759-0.012,0.759-0.012s28.457,0.473,51.14,0.473
					c11.341,0,21.24-0.118,25.415-0.473c0,0-31.318-14.639-76.556-14.639c-0.255,0-0.504,0.007-0.759,0.008v-7.627
					c0.255-0.001,0.503,0.987,0.759,0.993c44.059,0.998,69.877,11.634,75.682,14.059c11.541,4.822,18.771,11.387,18.771,11.387
					s-35.124,3-48.697,3c-21.718,0-43.657,0.48-45.756,0.446c-0.14,0.002-0.402,0.007-0.759,0.012V173.915z"/>
				<path style="fill:#FFFFFF;" d="M248.825,159.269c-44.962,0.11-76.048,14.634-76.048,14.634
					c11.879,1.01,70.058,0.105,76.048,0.008V159.269z"/>
				<path style="fill:#BCBCBC;" d="M248.825,159.269c-28.556-2.398-69.048,16.634-69.048,16.634
					c11.879,1.01,63.058-1.895,69.048-1.992V159.269z"/>
				<g>
					<path style="fill:#233A4C;" d="M237.238,166.191c0,0-19.749,1.559-28.974,5.34c0,0,23.138-1.443,29.564,3.085L237.238,166.191z
						"/>
				</g>
				<path style="fill:#233A4C;" d="M250.091,173.915c-0.493-0.008-0.759-0.012-0.759-0.012s-28.457,0.473-51.14,0.473
					c-11.341,0-21.24-0.118-25.415-0.473c0,0,31.318-14.639,76.556-14.639c0.255,0,0.504,0.007,0.759,0.008v-7.627
					c-0.254-0.001-0.503,0.985-0.759,0.993c-60.403,1.875-94.107,23.664-94.107,23.664s17.552,5.281,94.107,5.229
					c0.14,0.002,0.402,0.007,0.759,0.012V173.915z"/>
				<g>
					<path style="fill:#233A4C;" d="M244.024,174.389h12.595v152.019h-12.595V174.389 M244.024,168.719h-5.669v5.669v152.019v5.669
						h5.669h12.595h5.669v-5.669V174.389v-5.669h-5.669H244.024L244.024,168.719z"/>
				</g>
				<rect x="244.024" y="174.389" style="fill:#FFBF2C;" width="12.594" height="152.019"/>
				<polygon style="fill:#E99100;" points="256.618,221.471 251.154,204.858 244.024,200.439 244.024,179.406 256.618,179.406 				
					"/>
				<g>
					<polygon style="fill:#FFFFFF;" points="260.866,185.676 250.321,190.689 239.776,185.676 239.776,156.344 260.866,156.344 
											"/>
					<polygon style="fill:#BCBCBC;" points="260.866,185.676 250.321,190.689 239.776,185.676 239.776,156.344 257.695,161.493 
											"/>
					<polygon style="fill:#FFFFFF;" points="260.866,156.344 260.866,162.823 244.004,187.686 239.776,185.676 239.776,182.911 
						258.342,156.344 					"/>
					<g>
						<path style="fill:#233A4C;" d="M260.866,156.344v29.331l-10.545,5.013l-10.545-5.013v-29.331H260.866 M266.535,150.675h-5.669
							h-21.09h-5.669v5.669v29.331v3.582l3.235,1.538l10.545,5.014l2.434,1.157l2.434-1.157l10.545-5.014l3.235-1.538v-3.582
							v-29.331V150.675L266.535,150.675z"/>
					</g>
				</g>
			</g>
			<g>
				<polygon style="fill:#233A4C;" points="249.096,329.514 251.857,298.815 257.189,312.924 257.618,328.408 				"/>
			</g>
		</g>
		<g>
			<path style="fill:#233A4C;" d="M250,101.21c62.187,0,112.599,50.412,112.599,112.599c0,62.187-50.412,112.599-112.599,112.599
				c-62.187,0-112.599-50.412-112.599-112.599C137.401,151.622,187.813,101.21,250,101.21 M250,94.123
				c-31.969,0-62.025,12.45-84.63,35.055c-22.606,22.606-35.055,52.661-35.055,84.631c0,31.969,12.45,62.025,35.055,84.63
				c22.606,22.606,52.661,35.055,84.63,35.055c31.969,0,62.025-12.449,84.631-35.055c22.606-22.606,35.055-52.661,35.055-84.63
				c0-31.969-12.449-62.025-35.055-84.631C312.025,106.572,281.969,94.123,250,94.123L250,94.123z"/>
		</g>
	</g>
</g>
<g id="TEXTS">
	
		<text transform="matrix(1.0084 0 0 1 135.9768 388.632)" style="fill:#233A4C;stroke:#233A4C;stroke-miterlimit:10; font-family:'DMSans-Bold'; font-size:55.4821px;">MINING</text>
	
		<text transform="matrix(1.0084 0 0 1 168.8623 416.378)" style="fill:#F64600; font-family:'Palanquin-Bold'; font-size:26.3549px;">COMPANY</text>
</g>
</svg>
